<svg width="60" height="60" viewBox="0 0 60 60" fill="none" xmlns="http://www.w3.org/2000/svg">
<g clip-path="url(#clip0_59_33)">
<path d="M55.0767 8.29519C57.78 8.29519 59.992 10.5071 59.992 13.2105V14.6354L53.1631 19.5135L29.9141 35.5285L6.66516 19.351V51.7048H4.91531C2.21196 51.7048 -3.05176e-05 49.4929 -3.05176e-05 46.7895V13.2118C-3.05176e-05 10.5085 2.21196 8.29651 4.91531 8.29651L29.9141 26.8312L55.0753 8.29651L55.0767 8.29519Z" fill="#E75A4D"/>
<path d="M4.91534 8.29519L29.9142 26.8298L55.0767 8.29519H4.91534Z" fill="url(#paint0_linear_59_33)"/>
<path d="M6.66519 19.351V51.7048H53.1644V19.5135L29.9141 35.5285L6.66519 19.351Z" fill="#E7E4D7"/>
<path d="M6.66519 51.7048L29.9141 35.5285L29.8089 35.454L6.66519 51.3492V51.7048Z" fill="#B8B7AE"/>
<path d="M53.1644 19.5135L53.1777 51.7048L29.9141 35.5285L53.1644 19.5135Z" fill="#B7B6AD"/>
<path d="M59.9921 14.6354L60.0001 46.7935C59.8829 50.3678 58.3341 51.6435 53.1777 51.7035L53.1644 19.5121L59.9934 14.6341L59.9921 14.6354Z" fill="#B2392F"/>
<path d="M4.91534 8.29519L29.9142 26.8298L55.0767 8.29519H4.91534Z" fill="url(#paint1_linear_59_33)"/>
<path d="M4.91534 8.29519L29.9142 26.8298L55.0767 8.29519H4.91534Z" fill="url(#paint2_linear_59_33)"/>
<path d="M4.91534 8.29519L29.9142 26.8298L55.0767 8.29519H4.91534Z" fill="url(#paint3_linear_59_33)"/>
<path d="M4.91534 8.29519L29.9142 26.8298L55.0767 8.29519H4.91534Z" fill="url(#paint4_linear_59_33)"/>
<path d="M4.91534 8.29519L29.9142 26.8298L55.0767 8.29519H4.91534Z" fill="url(#paint5_linear_59_33)"/>
<path d="M4.91534 8.29519L29.9142 26.8298L55.0767 8.29519H4.91534Z" fill="url(#paint6_linear_59_33)"/>
<path d="M4.91534 8.29519L29.9142 26.8298L55.0767 8.29519H4.91534Z" fill="url(#paint7_linear_59_33)"/>
<path d="M4.91534 8.29519L29.9142 26.8298L55.0767 8.29519H4.91534Z" fill="#F7F5ED"/>
</g>
<defs>
<linearGradient id="paint0_linear_59_33" x1="13.9405" y1="17.5641" x2="45.9906" y2="17.5641" gradientUnits="userSpaceOnUse">
<stop stop-color="#F8F6EF"/>
<stop offset="1" stop-color="#E7E4D6"/>
</linearGradient>
<linearGradient id="paint1_linear_59_33" x1="13.9405" y1="17.5641" x2="45.9906" y2="17.5641" gradientUnits="userSpaceOnUse">
<stop stop-color="#F8F6EF"/>
<stop offset="1" stop-color="#E7E4D6"/>
</linearGradient>
<linearGradient id="paint2_linear_59_33" x1="13.9405" y1="17.5641" x2="45.9906" y2="17.5641" gradientUnits="userSpaceOnUse">
<stop stop-color="#F8F6EF"/>
<stop offset="1" stop-color="#E7E4D6"/>
</linearGradient>
<linearGradient id="paint3_linear_59_33" x1="13.9405" y1="17.5641" x2="45.9906" y2="17.5641" gradientUnits="userSpaceOnUse">
<stop stop-color="#F8F6EF"/>
<stop offset="1" stop-color="#E7E4D6"/>
</linearGradient>
<linearGradient id="paint4_linear_59_33" x1="13.9405" y1="17.5641" x2="45.9906" y2="17.5641" gradientUnits="userSpaceOnUse">
<stop stop-color="#F8F6EF"/>
<stop offset="1" stop-color="#E7E4D6"/>
</linearGradient>
<linearGradient id="paint5_linear_59_33" x1="13.9405" y1="17.5641" x2="45.9906" y2="17.5641" gradientUnits="userSpaceOnUse">
<stop stop-color="#F8F6EF"/>
<stop offset="1" stop-color="#E7E4D6"/>
</linearGradient>
<linearGradient id="paint6_linear_59_33" x1="13.9405" y1="17.5641" x2="45.9906" y2="17.5641" gradientUnits="userSpaceOnUse">
<stop stop-color="#F8F6EF"/>
<stop offset="1" stop-color="#E7E4D6"/>
</linearGradient>
<linearGradient id="paint7_linear_59_33" x1="13.9405" y1="17.5641" x2="45.9906" y2="17.5641" gradientUnits="userSpaceOnUse">
<stop stop-color="#F8F6EF"/>
<stop offset="1" stop-color="#E7E4D6"/>
</linearGradient>
<clipPath id="clip0_59_33">
<rect width="60" height="60" fill="white"/>
</clipPath>
</defs>
</svg>
