<svg width="18" height="17" viewBox="0 0 18 17" fill="none" xmlns="http://www.w3.org/2000/svg">
<g clip-path="url(#clip0_498_17)">
<path d="M9 0C4.0305 0 0 4.03541 0 9.01264C0 12.9947 2.5785 16.373 6.15525 17.5649C6.6045 17.6483 6.75 17.3689 6.75 17.1315V15.4537C4.2465 15.9989 3.72525 14.3902 3.72525 14.3902C3.31575 13.3485 2.7255 13.0713 2.7255 13.0713C1.90875 12.5118 2.78775 12.5238 2.78775 12.5238C3.6915 12.5869 4.167 13.4529 4.167 13.4529C4.9695 14.8303 6.27225 14.4322 6.786 14.2017C6.86625 13.6196 7.0995 13.2215 7.3575 12.997C5.35875 12.7679 3.25725 11.9951 3.25725 8.54248C3.25725 7.55785 3.609 6.75422 4.18425 6.12334C4.09125 5.89577 3.783 4.97873 4.272 3.73799C4.272 3.73799 5.028 3.49615 6.74775 4.66179C7.4655 4.46201 8.235 4.36212 9 4.35836C9.765 4.36212 10.5352 4.46201 11.2545 4.66179C12.9727 3.49615 13.7272 3.73799 13.7272 3.73799C14.217 4.97948 13.9087 5.89652 13.8158 6.12334C14.3932 6.75422 14.742 7.5586 14.742 8.54248C14.742 12.0041 12.6368 12.7664 10.6327 12.9895C10.9552 13.2689 11.25 13.8171 11.25 14.6583V17.1315C11.25 17.3711 11.394 17.6528 11.8507 17.5641C15.4245 16.3707 18 12.9932 18 9.01264C18 4.03541 13.9703 0 9 0Z" fill="#777777"/>
</g>
<defs>
<clipPath id="clip0_498_17">
<rect width="18" height="17" fill="white"/>
</clipPath>
</defs>
</svg>
