<svg width="14" height="14" viewBox="0 0 14 14" fill="none" xmlns="http://www.w3.org/2000/svg">
<path d="M12.6562 13.5C11.1312 13.5 9.61563 13.125 8.10938 12.375C6.60313 11.625 5.25 10.65 4.05 9.45C2.85 8.25 1.875 6.89687 1.125 5.39062C0.375 3.88438 0 2.36875 0 0.84375C0 0.602675 0.0803562 0.401781 0.241069 0.241069C0.401781 0.0803562 0.602675 0 0.84375 0H3.46875C3.63889 0 3.7908 0.059375 3.92449 0.178125C4.05816 0.296875 4.14375 0.45625 4.18125 0.65625L4.6875 3.01875C4.7125 3.19375 4.70938 3.35313 4.67813 3.49688C4.64688 3.64062 4.58125 3.7625 4.48125 3.8625L2.60625 5.75625C3.30625 6.91875 4.09063 7.93125 4.95938 8.79375C5.82812 9.65625 6.8125 10.3875 7.9125 10.9875L9.69375 9.15C9.81875 9.0125 9.9625 8.91562 10.125 8.85938C10.2875 8.80312 10.45 8.79375 10.6125 8.83125L12.8438 9.31875C13.0352 9.36094 13.1924 9.45586 13.3154 9.60353C13.4385 9.75117 13.5 9.925 13.5 10.125V12.6562C13.5 12.8973 13.4196 13.0982 13.2589 13.2589C13.0982 13.4196 12.8973 13.5 12.6562 13.5ZM2.04375 4.725L3.5625 3.1875L3.13125 1.125H1.125C1.125 1.6125 1.2 2.14687 1.35 2.72812C1.5 3.30938 1.73125 3.975 2.04375 4.725ZM8.9625 11.5312C9.475 11.7687 10.0312 11.9625 10.6312 12.1125C11.2312 12.2625 11.8125 12.35 12.375 12.375V10.3688L10.4438 9.975L8.9625 11.5312Z" fill="#777777"/>
<path d="M2.04375 4.725L3.5625 3.1875L3.13125 1.125H1.125C1.125 1.6125 1.2 2.14687 1.35 2.72812C1.5 3.30938 1.73125 3.975 2.04375 4.725Z" fill="#777777"/>
<path d="M8.9625 11.5312C9.475 11.7687 10.0312 11.9625 10.6312 12.1125C11.2312 12.2625 11.8125 12.35 12.375 12.375V10.3688L10.4438 9.975L8.9625 11.5312Z" fill="#777777"/>
</svg>
