<svg width="14" height="16" viewBox="0 0 14 16" fill="none" xmlns="http://www.w3.org/2000/svg">
<path d="M6.835 13.8162C8.72886 12.2704 10.1279 10.8683 11.0321 9.61C11.9363 8.35166 12.3884 7.24343 12.3884 6.2853C12.3884 4.77785 11.8509 3.54506 10.7758 2.58694C9.70072 1.62881 8.38711 1.14975 6.835 1.14975C5.28289 1.14975 3.96928 1.62881 2.8942 2.58694C1.81911 3.54506 1.28156 4.77785 1.28156 6.2853C1.28156 7.24343 1.74435 8.35166 2.66992 9.61C3.59549 10.8683 4.98385 12.2704 6.835 13.8162ZM6.835 15.33C4.54243 13.5798 2.83012 11.9542 1.69807 10.4531C0.566024 8.95208 0 7.5628 0 6.2853C0 4.36905 0.68706 2.84244 2.06118 1.70546C3.4353 0.568488 5.02657 0 6.835 0C8.64343 0 10.2347 0.568488 11.6088 1.70546C12.9829 2.84244 13.67 4.36905 13.67 6.2853C13.67 7.5628 13.104 8.95208 11.9719 10.4531C10.8399 11.9542 9.12757 13.5798 6.835 15.33ZM4.48547 8.4315H5.76703V6.132H7.90297V8.4315H9.18453V4.88644L6.835 3.48758L4.48547 4.88644V8.4315Z" fill="#777777"/>
</svg>
